<svg xmlns="http://www.w3.org/2000/svg" viewBox="0 0 64 64" fill="none">
  <defs>
    <linearGradient id="grad" x1="0" y1="0" x2="64" y2="64" gradientUnits="userSpaceOnUse">
      <stop offset="0%" stop-color="#60a5fa"/>
      <stop offset="100%" stop-color="#a78bfa"/>
    </linearGradient>
    <filter id="glow">
      <feGaussianBlur in="SourceGraphic" stdDeviation="2"/>
    </filter>
  </defs>
  <rect width="64" height="64" rx="14" fill="#0f172a"/>
  <rect x="2" y="2" width="60" height="60" rx="12" fill="none" stroke="url(#grad)" stroke-width="1.5" opacity="0.3"/>
  <!-- 服务器图标 -->
  <rect x="16" y="14" width="32" height="10" rx="3" fill="url(#grad)" opacity="0.9"/>
  <circle cx="22" cy="19" r="2" fill="#0f172a"/>
  <circle cx="28" cy="19" r="2" fill="#0f172a"/>
  <rect x="38" y="17" width="6" height="1.5" rx="0.75" fill="#0f172a" opacity="0.5"/>
  <rect x="38" y="20" width="4" height="1.5" rx="0.75" fill="#0f172a" opacity="0.3"/>

  <rect x="16" y="27" width="32" height="10" rx="3" fill="url(#grad)" opacity="0.7"/>
  <circle cx="22" cy="32" r="2" fill="#0f172a"/>
  <circle cx="28" cy="32" r="2" fill="#0f172a"/>
  <rect x="38" y="30" width="6" height="1.5" rx="0.75" fill="#0f172a" opacity="0.5"/>
  <rect x="38" y="33" width="4" height="1.5" rx="0.75" fill="#0f172a" opacity="0.3"/>

  <rect x="16" y="40" width="32" height="10" rx="3" fill="url(#grad)" opacity="0.5"/>
  <circle cx="22" cy="45" r="2" fill="#0f172a"/>
  <circle cx="28" cy="45" r="2" fill="#0f172a"/>
  <rect x="38" y="43" width="6" height="1.5" rx="0.75" fill="#0f172a" opacity="0.5"/>
  <rect x="38" y="46" width="4" height="1.5" rx="0.75" fill="#0f172a" opacity="0.3"/>
</svg>
